<svg id="Logo" xmlns="http://www.w3.org/2000/svg" xmlns:xlink="http://www.w3.org/1999/xlink" viewBox="0 0 479.72 198.04"><defs><style>.cls-1{fill:none;}.cls-2{clip-path:url(#clip-path);}.cls-3{fill:url(#radial-gradient);}.cls-4{clip-path:url(#clip-path-2);}.cls-5{fill:url(#radial-gradient-2);}.cls-6{clip-path:url(#clip-path-3);}.cls-7{fill:url(#radial-gradient-3);}.cls-8{clip-path:url(#clip-path-4);}.cls-9{fill:url(#radial-gradient-4);}.cls-10{clip-path:url(#clip-path-5);}.cls-11{fill:url(#radial-gradient-5);}.cls-12{clip-path:url(#clip-path-6);}.cls-13{fill:url(#radial-gradient-6);}.cls-14{clip-path:url(#clip-path-7);}.cls-15{fill:url(#radial-gradient-7);}.cls-16{clip-path:url(#clip-path-8);}.cls-17{fill:url(#radial-gradient-8);}.cls-18{fill:url(#radial-gradient-9);}.cls-19{fill:#545456;}</style><clipPath id="clip-path"><path class="cls-1" d="M148,105l0,0-.11.15c-9.89,11.44-29.55,14.2-46.13,9.89l-1.63-.45c-.71-.21-1.41-.43-2.11-.66,3.44,1.18,6.36,3.37,9.59,5,4.4,2.21,9.06,3.32,13.81,4.49a60.84,60.84,0,0,0,13.7,1.73,46.36,46.36,0,0,0,15.62-2.57c10.91-3.74,14.83-8.1,14.84-8.11a35.37,35.37,0,0,0,3.22-16.81c-.4-10.65-3.91-26.51-16.21-35.06a12.78,12.78,0,0,0-4.37-1.09c-1.34-.15-4.66-.34-4.66-.34,20.86,4.24,13,32.76,4.47,43.8"/></clipPath><radialGradient id="radial-gradient" cx="25.93" cy="171.96" r="1" gradientTransform="matrix(33.74, 0, 0, -33.74, -741.63, 5895.72)" gradientUnits="userSpaceOnUse"><stop offset="0" stop-color="#72bfd8"/><stop offset="0.27" stop-color="#72bfd8"/><stop offset="0.56" stop-color="#54adc0"/><stop offset="0.82" stop-color="#40a0af"/><stop offset="1" stop-color="#389ba9"/></radialGradient><clipPath id="clip-path-2"><path class="cls-1" d="M63,102.75c-5.91,0-9.21,1.74-14.49,5.32,0,0,15.45,12.67,23.36,21.63,22.34,25.32,48.08,21.18,62,15.84a47.35,47.35,0,0,1-14.75,2C95.77,147,77.19,128.61,73.76,106.3c-3.94-2.29-6.47-3.55-10.71-3.55H63"/></clipPath><radialGradient id="radial-gradient-2" cx="25.93" cy="171.95" r="1" gradientTransform="matrix(0, 34.49, 34.49, 0, -5837.25, -765.57)" xlink:href="#radial-gradient"/><clipPath id="clip-path-3"><path class="cls-1" d="M122.6,146.34a45.89,45.89,0,0,0,42.65-28.93s-4,4.42-15,8.2a48.85,48.85,0,0,1-22,2.15,85.2,85.2,0,0,1-14-2.82,33.93,33.93,0,0,1-6.12-2.31c-1.78-.92-3.5-1.94-5.22-3-1.23-.72-2.45-1.54-3.75-2.14-9.55-4.43-19.65-9.25-21.33-10.17,3.8,21.52,22.18,39,44.79,39"/></clipPath><radialGradient id="radial-gradient-3" cx="25.92" cy="171.94" r="1" gradientTransform="matrix(33.85, 0, 0, -33.85, -755.77, 5946.57)" gradientUnits="userSpaceOnUse"><stop offset="0" stop-color="#72bfd8"/><stop offset="0.27" stop-color="#72bfd8"/><stop offset="0.56" stop-color="#54adc1"/><stop offset="0.83" stop-color="#3ea0b0"/><stop offset="1" stop-color="#369baa"/></radialGradient><clipPath id="clip-path-4"><path class="cls-1" d="M77.81,92.63a53.11,53.11,0,0,0,17.76-6.26c5.8-3.11,10.75-8.32,12.38-9.78l-.13,0c9.14-13.06,21.41-16.39,31-16.68a52.79,52.79,0,0,1,11.44.94l-.07,0A47,47,0,0,0,122.92,52C99.71,52,81,70.32,77.81,92.63"/></clipPath><radialGradient id="radial-gradient-4" cx="25.93" cy="171.95" r="1" gradientTransform="matrix(29.38, 0, 0, -29.38, -647.56, 5123.54)" xlink:href="#radial-gradient"/><clipPath id="clip-path-5"><path class="cls-1" d="M78.71,65.44C68.21,76.5,59.11,82.35,52.55,85c2.55,2.16,2.46,7.24,12.67,8.15a39.32,39.32,0,0,0,9.1-.35c2.39-22.62,20.51-41.8,43.9-42.7,6.1-.24,15.16,1.76,20.57,3.69a56.78,56.78,0,0,0-23.24-5.28c-11.46,0-24.55,4-36.84,17"/></clipPath><radialGradient id="radial-gradient-5" cx="25.93" cy="171.95" r="1" gradientTransform="matrix(34.43, 0, 0, -34.43, -797.05, 5990.62)" xlink:href="#radial-gradient"/><clipPath id="clip-path-6"><path class="cls-1" d="M112,76.19l.11,0s6.16,1.33,6.88,4.37c0,0,7.5,2,12.24,3.65,13.49,4.65,16.62,15.56,15,18.38,1.65-2.78-1.46-13.75-15-18.41C126.52,82.58,119,80.56,119,80.56c-.71-3-6.88-4.37-6.88-4.37l-.1,0a0,0,0,0,0,0,0"/></clipPath><radialGradient id="radial-gradient-6" cx="25.93" cy="171.96" r="1" gradientTransform="matrix(0, 40, 40, 0, -6736.74, -961.33)" xlink:href="#radial-gradient"/><clipPath id="clip-path-7"><path class="cls-1" d="M148.78,105h0a.64.64,0,0,0,.08-.14.64.64,0,0,1-.08.14"/></clipPath><radialGradient id="radial-gradient-7" cx="25.94" cy="171.96" r="0.99" gradientTransform="matrix(-44.48, 0, 0, 44.48, 1296.79, -7545.45)" xlink:href="#radial-gradient"/><clipPath id="clip-path-8"><path class="cls-1" d="M112,76.17l.1,0s6.17,1.33,6.88,4.37c0,0,7.5,2,12.24,3.65,13.53,4.66,16.64,15.63,15,18.41l-.08.13h0c8.42-10.1,16.43-38.34-6.52-40.17l-.73,0A32.78,32.78,0,0,0,112,76.17"/></clipPath><radialGradient id="radial-gradient-8" cx="25.93" cy="171.96" r="1" gradientTransform="matrix(0, 40, 40, 0, -6736.39, -975.18)" xlink:href="#radial-gradient"/><radialGradient id="radial-gradient-9" cx="25.94" cy="171.96" r="1" gradientTransform="matrix(0, -39.1, -39.1, 0, 6842.89, 1101.53)" xlink:href="#radial-gradient"/></defs><g class="cls-2"><rect class="cls-3" x="97.94" y="61.23" width="71.01" height="64.05"/></g><g class="cls-4"><rect class="cls-5" x="64.11" y="85.63" width="54.12" height="86.5" transform="matrix(0.02, -1, 1, 0.02, -39.67, 217.22)"/></g><g class="cls-6"><rect class="cls-7" x="77.81" y="107.36" width="87.43" height="38.98"/></g><g class="cls-8"><rect class="cls-9" x="77.81" y="52" width="72.48" height="40.63"/></g><g class="cls-10"><rect class="cls-11" x="51.72" y="46.84" width="87.9" height="48.14" transform="translate(-2.65 3.73) rotate(-2.2)"/></g><g class="cls-12"><rect class="cls-13" x="116.1" y="70.99" width="27.72" height="36.81" transform="translate(35.99 216.08) rotate(-87.96)"/></g><g class="cls-14"><rect class="cls-15" x="148.78" y="104.87" width="0.09" height="0.15"/></g><g class="cls-16"><rect class="cls-17" x="116.32" y="56.66" width="41.99" height="51.96" transform="translate(49.83 216.92) rotate(-87.96)"/></g><g class="cls-16"><rect class="cls-18" x="116.32" y="56.66" width="41.99" height="51.96" transform="translate(49.83 216.93) rotate(-87.96)"/></g><path class="cls-19" d="M211.2,122.57H202a9.26,9.26,0,0,1-9.25-9.25l-.18-30a9.26,9.26,0,0,1,9.25-9.26H211a9.27,9.27,0,0,1,9.26,9.26l.18,30a9.26,9.26,0,0,1-9.25,9.25m-9.42-42.45a3.23,3.23,0,0,0-3.23,3.23l.18,30a3.23,3.23,0,0,0,3.23,3.23h9.24a3.23,3.23,0,0,0,3.23-3.23l-.18-30A3.23,3.23,0,0,0,211,80.12Z"/><path class="cls-19" d="M236.9,122.59h-6V74.05h16.63a9.91,9.91,0,0,1,9.9,9.91v8.65a9.91,9.91,0,0,1-9.91,9.91H236.9Zm0-26.09h10.6a3.89,3.89,0,0,0,3.89-3.89V84a3.89,3.89,0,0,0-3.88-3.89H236.9Z"/><path class="cls-19" d="M431.24,92.49V84.13a9.91,9.91,0,0,0-9.91-9.91H404.7v48.24h6V103h10.6a3.9,3.9,0,0,1,3.89,3.89v15.26h6V106.87a9.88,9.88,0,0,0-3.11-7.19,9.88,9.88,0,0,0,3.11-7.19M410.73,80.24h10.6a3.89,3.89,0,0,1,3.89,3.89v8.36a3.89,3.89,0,0,1-3.89,3.88h-10.6Z"/><polygon class="cls-19" points="286.05 74.09 263.72 74.09 263.72 80.12 271.87 80.12 271.87 122.59 277.9 122.59 277.9 80.12 286.05 80.12 286.05 74.09"/><rect class="cls-19" x="295.96" y="74.05" width="6.02" height="48.54"/><polygon class="cls-19" points="338.8 122.59 331.23 122.59 320.56 82.66 320.56 122.59 314.54 122.59 314.54 74.09 324.5 74.09 335.05 113.56 346 74.09 355.69 74.09 355.69 122.59 349.67 122.59 349.67 83.39 338.8 122.59"/><path class="cls-19" d="M369.53,122.74l3-11.72h15.85l2.83,11.72h6.19L385.76,74.2H375.58l-12.27,48.54Zm10.74-42.52H381L386.89,105H374Z"/></svg>